# AST/ASF file generated using VICON BodyLanguage
# -----------------------------------------------
:version 1.10
:name VICON
:units
  mass 1.0
  length 0.45
  angle deg
:documentation
   .ast/.asf automatically generated from VICON data using
   VICON BodyBuilder and BodyLanguage model FoxedUp or BRILLIANT.MOD
:root
   order TX TY TZ RX RY RZ
   axis XYZ
   position 0 0 0  
   orientation 0 0 0 
:bonedata
  begin
     id 1 
     name lhipjoint
     direction 0.567725 -0.736092 0.368589 
     length 2.42353 
     axis 0 0 0  XYZ
  end
  begin
     id 2 
     name lfemur
     direction 0.34202 -0.939693 0  
     length 7.24894  
     axis 0 0 20  XYZ
    dof rx ry rz
    limits (-160.0 20.0)
           (-70.0 70.0)
           (-60.0 70.0)
  end
  begin
     id 3 
     name ltibia
     direction 0.34202 -0.939693 0   
     length 7.6997   
     axis 0 0 20   XYZ
    dof rx
    limits (-10.0 170.0)
  end
  begin
     id 4 
     name lfoot
     direction 0.100767 -0.276854 0.955614   
     length 2.37556   
     axis -90 7.62852e-016 20   XYZ
    dof rx rz
    limits (-45.0 90.0)
           (-70.0 20.0)
  end
  begin
     id 5 
     name ltoes
     direction 1.53592e-011 -4.21894e-011 1   
     length 1.18363   
     axis -90 7.62852e-016 20   XYZ
    dof rx
    limits (-90.0 20.0)
  end
  begin
     id 6 
     name rhipjoint
     direction -0.556459 -0.742938 0.372017   
     length 2.4012  
     axis 0 0 0  XYZ 
  end
  begin
     id 7 
     name rfemur
     direction -0.34202 -0.939693 0   
     length 7.5119   
     axis 0 0 -20   XYZ
    dof rx ry rz
    limits (-160.0 20.0)
           (-70.0 70.0)
           (-70.0 60.0)
  end
  begin
     id 8 
     name rtibia
     direction -0.34202 -0.939693 0   
     length 7.50155   
     axis 0 0 -20   XYZ
    dof rx
    limits (-10.0 170.0)
 end
 begin
     id 9 
     name rfoot
     direction -0.118427 -0.325376 0.938139   
     length 2.32487  
     axis -90 -7.62852e-016 -20   XYZ
    dof rx rz
    limits (-45.0 90.0)
           (-20.0 70.0)
  end
  begin
     id 10 
     name rtoes
     direction -1.53525e-011 -4.21868e-011 1   
     length 1.15233   
     axis -90 -7.62852e-016 -20   XYZ
    dof rx
    limits (-90.0 20.0)
  end
  begin
     id 11 
     name lowerback
     direction 0.0287568 0.999577 -0.00434502   
     length 2.15243   
     axis 0 0 0   XYZ
    dof rx ry rz
    limits (-20.0 45.0)
           (-30.0 30.0)
           (-30.0 30.0)
  end
  begin
     id 12 
     name upperback
     direction 0.0294009 0.99956 0.00404628   
     length 2.15427   
     axis 0 0 0   XYZ
    dof rx ry rz
    limits (-20.0 45.0)
           (-30.0 30.0)
           (-30.0 30.0)
  end
  begin
     id 13 
     name thorax
     direction 0.0151014 0.999868 0.0059419   
     length 2.14898   
     axis 0 0 0   XYZ
    dof rx ry rz
    limits (-20.0 45.0)
           (-30.0 30.0)
           (-30.0 30.0)
  end
  begin
     id 14 
     name lowerneck
     direction -0.0249197 0.989906 0.139515   
     length 1.6861   
     axis 0 0 0   XYZ
    dof rx ry rz
    limits (-20.0 45.0)
           (-30.0 30.0)
           (-30.0 30.0)
  end
  begin
     id 15 
     name upperneck
     direction 0.0438463 0.988795 -0.142693   
     length 1.71276   
     axis 0 0 0   XYZ
    dof rx ry rz
    limits (-20.0 45.0)
           (-30.0 30.0)
           (-30.0 30.0)
  end
  begin
     id 16
     name head
     direction 0.0148499 0.997845 -0.0639186  
     length 1.7209  
     axis 0 0 0   XYZ
    dof rx ry rz
    limits (-20.0 45.0)
           (-30.0 30.0)
           (-30.0 30.0)
  end
  begin
     id 17 
     name lclavicle
     direction 0.940298 0.323464 -0.105876  
     length 3.9048  
     axis 0 0 0   XYZ
    dof ry rz
    limits (-20.0 10.0)
           (0.0 20.0)
  end
  begin
     id 18 
     name lhumerus
     direction 1 -4.48954e-011 -4.9675e-028   
     length 4.6851   
     axis 180 -30 -90   XYZ
    dof rx ry rz
    limits (-60.0 90.0)
           (-90.0 90.0)
           (-90.0 90.0)
  end
  begin
     id 19
     name lradius
     direction 1 -4.48992e-011 -1.03359e-026   
     length 3.39626   
     axis 180 -30 -90   XYZ
    dof rx
    limits (-10.0 170.0)
  end
  begin
     id 20
     name lwrist
     direction 1 -4.48906e-011 -1.67336e-026   
     length 1.69813   
     axis 9.90442e-015 90 90   XYZ
    dof ry
    limits (-180.0 0.0)
 end
  begin
     id 21 
     name lhand
     direction 1 -4.49006e-011 -3.34673e-026   
     length 0.486078   
     axis 2.1355e-014 90 90   XYZ
    dof rx rz
    limits (-90.0 90.0)
           (-45.0 45.0)
  end
  begin
     id 22 
     name lfingers
     direction 1 -4.48992e-011 -6.69345e-026   
     length 0.391889   
     axis 4.27099e-014 90 90   XYZ
    dof rx
    limits (0.0 90.0)
  end
  begin
     id 23
     name lthumb
     direction 0.707107 -6.34926e-011 0.707107   
     length 0.562676   
     axis -90 45 2.85299e-015   XYZ
    dof rx rz
    limits (-45.0 45.0)
           (-45.0 45.0)
  end
  begin
     id 24 
     name rclavicle
     direction -0.882459 0.414895 -0.221648   
     length 3.44646  
     axis 0 0 0   XYZ 
    dof ry rz
    limits (-10.0 20.0)
           (-20.0 0.0)
  end
  begin
     id 25 
     name rhumerus
     direction -1 -4.48962e-011 -2.37984e-027  
     length 5.55576   
     axis 180 30 90   XYZ
    dof rx ry rz
    limits (-90.0 60.0)
           (-90.0 90.0)
           (-90.0 90.0)
  end
  begin
     id 26 
     name rradius
     direction -1 -4.48982e-011 -6.86791e-027   
     length 3.32774   
     axis 180 30 90   XYZ
    dof rx
    limits (-10.0 170.0)
  end
  begin
     id 27 
     name rwrist
     direction -1 -4.48961e-011 -1.67336e-026   
     length 1.66387   
     axis 9.90442e-015 -90 -90   XYZ
    dof ry
    limits (-180.0 0.0)
  end
  begin
     id 28
     name rhand
     direction -1 -4.4897e-011 -3.34673e-026   
     length 0.507628   
     axis 2.1355e-014 -90 -90   XYZ
    dof rx rz
    limits (-90.0 90.0)
           (-45.0 45.0)
  end
  begin
     id 29
     name rfingers
     direction -1 -4.48854e-011 -6.69345e-026   
     length 0.409263   
     axis 4.27099e-014 -90 -90   XYZ
    dof rx
    limits (0.0 90.0)
  end
  begin
     id 30
     name rthumb
     direction -0.707107 -6.34913e-011 0.707107   
     length 0.587622   
     axis -90 -45 -2.85299e-015   XYZ
    dof rx rz
    limits (-45.0 45.0)
           (-45.0 45.0)
  end
:hierarchy
  begin
    root lhipjoint rhipjoint lowerback
    lhipjoint lfemur
    lfemur ltibia
    ltibia lfoot
    lfoot ltoes
    rhipjoint rfemur
    rfemur rtibia
    rtibia rfoot
    rfoot rtoes
    lowerback upperback
    upperback thorax
    thorax lowerneck lclavicle rclavicle
    lowerneck upperneck
    upperneck head
    lclavicle lhumerus
    lhumerus lradius
    lradius lwrist
    lwrist lhand lthumb
    lhand lfingers
    rclavicle rhumerus
    rhumerus rradius
    rradius rwrist
    rwrist rhand rthumb
    rhand rfingers
  end

#!OML:ASF E:\motion texture\Top Level 1\Subject 1\Session 1\male.ASF
:FULLY-SPECIFIED
:DEGREES
102
root 33.4533 17.6886 5.63093 151.689 -86.5135 -144.572
lowerback -2.52947 1.13009 3.93355
upperback -3.66061 1.41349 1.67056
thorax -2.29282 0.594165 -0.476027
lowerneck -15.5827 -5.14754 -8.60458
upperneck -12.1307 -5.72599 11.0036
head -0.551291 -2.82681 4.5349
rclavicle -5.34234e-015 1.03368e-014
rhumerus 30.683 8.89423 -83.7536
rradius 71.9736
rwrist -35.0058
rhand -9.37157 -49.1215
rfingers 7.12502
rthumb 16.5887 -438.432
lclavicle -5.34234e-015 1.03368e-014
lhumerus -8.98408 -8.10275 90.2201
lradius 43.5977
lwrist -11.4919
lhand -13.9677 25.1435
lfingers 7.12502
lthumb 12.1603 54.77
rfemur -16.0132 -5.52722 20.5952
rtibia 56.0872
rfoot -0.123108 -13.6553
rtoes 1.86135
lfemur -17.6406 -3.5564 -19.5943
ltibia 16.9105
lfoot -5.01622 0.451908
ltoes 6.20662
103
root 33.3258 17.6966 5.63105 150.678 -86.8234 -143.665
lowerback -2.49901 1.01129 3.76658
upperback -3.67543 1.25966 1.62274
thorax -2.3327 0.520796 -0.433799
lowerneck -15.6171 -5.14591 -8.56609
upperneck -12.2738 -5.72645 11.0767
head -0.586319 -2.83318 4.55393
rclavicle 1.15295e-014 4.21423e-014
rhumerus 31.4913 9.07644 -83.0916
rradius 72.4986
rwrist -34.0602
rhand -9.52798 -48.679
rfingers 7.12502
rthumb 16.4381 -438.002
lclavicle 1.15295e-014 4.21423e-014
lhumerus -8.22328 -8.82894 90.2506
lradius 44.2219
lwrist -10.8714
lhand -13.9487 25.2245
lfingers 7.12502
lthumb 12.1786 54.85
rfemur -16.9679 -5.83088 20.4065
rtibia 56.7656
rfoot -0.199138 -14.0803
rtoes 2.39029
lfemur -16.9706 -3.65107 -19.8563
ltibia 16.7541
lfoot -5.35122 0.225318
ltoes 6.30509
104
root 33.199 17.704 5.63059 149.485 -87.1252 -142.57
lowerback -2.46322 0.892346 3.58979
upperback -3.69359 1.10577 1.58372
thorax -2.37877 0.44761 -0.376849
lowerneck -15.6287 -5.14104 -8.53693
upperneck -12.4298 -5.72213 11.1468
head -0.628821 -2.83759 4.57456
rclavicle -6.52262e-015 -5.1684e-015
rhumerus 32.2386 9.2638 -82.4015
rradius 72.9866
rwrist -33.1194
rhand -9.69265 -48.2715
rfingers 7.12502
rthumb 16.2796 -437.608
lclavicle -6.52262e-015 -5.1684e-015
lhumerus -7.46759 -9.53227 90.2734
lradius 44.8383
lwrist -10.2668
lhand -13.9265 25.2939
lfingers 7.12502
lthumb 12.2 54.9181
rfemur -17.9246 -6.1205 20.2293
rtibia 57.337
rfoot -0.329814 -14.5105
rtoes 2.89691
lfemur -16.3061 -3.74432 -20.106
ltibia 16.5968
lfoot -5.69196 0.0108759
ltoes 6.3738
105
root 33.0729 17.7106 5.62955 148.059 -87.4172 -141.238
lowerback -2.42794 0.774922 3.4134
upperback -3.70278 0.953551 1.54591
thorax -2.41458 0.375637 -0.318505
lowerneck -15.6542 -5.13609 -8.51067
upperneck -12.5933 -5.71676 11.2189
head -0.671541 -2.84164 4.59636
rclavicle -7.95139e-015 -1.23246e-014
rhumerus 32.9483 9.44627 -81.6912
rradius 73.4377
rwrist -32.1866
rhand -9.86501 -47.8943
rfingers 7.12502
rthumb 16.1136 -437.244
lclavicle -7.95139e-015 -1.23246e-014
lhumerus -6.69039 -10.2238 90.2741
lradius 45.4436
lwrist -9.6742
lhand -13.898 25.3504
lfingers 7.12502
lthumb 12.2275 54.973
rfemur -18.8796 -6.39502 20.0639
rtibia 57.7955
rfoot -0.510289 -14.9444
rtoes 3.38524
lfemur -15.6467 -3.83217 -20.3425
ltibia 16.4382
lfoot -6.03673 -0.195798
ltoes 6.41762
106
root 32.9473 17.7166 5.62799 146.355 -87.699 -139.623
lowerback -2.39285 0.65776 3.23589
upperback -3.71226 0.801401 1.51093
thorax -2.44998 0.303781 -0.25634
lowerneck -15.657 -5.1274 -8.48687
upperneck -12.7706 -5.70697 11.2884
head -0.722078 -2.84427 4.61878
rclavicle -6.94504e-015 -7.95139e-015
rhumerus 33.6041 9.6321 -80.965
rradius 73.8554
rwrist -31.2671
rhand -10.0405 -47.5491
rfingers 7.12502
rthumb 15.9447 -436.913
lclavicle -6.94504e-015 -7.95139e-015
lhumerus -5.91243 -10.8977 90.2557
lradius 46.0399
lwrist -9.09404
lhand -13.8637 25.3975
lfingers 7.12502
lthumb 12.2606 55.0181
rfemur -19.8303 -6.65283 19.9086
rtibia 58.1382
rfoot -0.739184 -15.3806
rtoes 3.85787
lfemur -14.9943 -3.91887 -20.5676
ltibia 16.2804
lfoot -6.38576 -0.391321
ltoes 6.43774
107
root 32.8222 17.7218 5.62587 144.291 -87.969 -137.642
lowerback -2.35412 0.542276 3.05735
upperback -3.71957 0.651415 1.47856
thorax -2.48447 0.233154 -0.190679
lowerneck -15.6554 -5.11671 -8.4671
upperneck -12.9564 -5.69405 11.3586
head -0.775972 -2.8457 4.64265
rclavicle 9.06955e-016 3.97569e-016
rhumerus 34.2129 9.81773 -80.2222
rradius 74.2429
rwrist -30.3619
rhand -10.2196 -47.2311
rfingers 7.12502
rthumb 15.7722 -436.609
lclavicle 9.06955e-016 3.97569e-016
lhumerus -5.12506 -11.557 90.2174
lradius 46.6254
lwrist -8.5278
lhand -13.8215 25.4336
lfingers 7.12502
lthumb 12.3012 55.0517
rfemur -20.773 -6.89188 19.7636
rtibia 58.3605
rfoot -1.0107 -15.8157
rtoes 4.31068
lfemur -14.3493 -4.00182 -20.7807
ltibia 16.1243
lfoot -6.73752 -0.576854
ltoes 6.44029
108
root 32.6976 17.7262 5.62319 141.81 -88.2252 -135.24
lowerback -2.31712 0.428986 2.87843
upperback -3.7217 0.503998 1.44797
thorax -2.51192 0.164043 -0.122687
lowerneck -15.6522 -5.10368 -8.44998
upperneck -13.1505 -5.67771 11.4287
head -0.832856 -2.84582 4.66741
rclavicle -1.98785e-016 -5.96354e-015
rhumerus 34.7815 10.0041 -79.4649
rradius 74.6019
rwrist -29.4722
rhand -10.4065 -46.9334
rfingers 7.12502
rthumb 15.5922 -436.325
lclavicle -1.98785e-016 -5.96354e-015
lhumerus -4.32484 -12.2013 90.1559
lradius 47.1998
lwrist -7.97602
lhand -13.7756 25.4634
lfingers 7.12502
lthumb 12.3455 55.0789
rfemur -21.7048 -7.11 19.627
rtibia 58.4593
rfoot -1.3192 -16.2455
rtoes 4.75212
lfemur -13.7115 -4.0812 -20.9829
ltibia 15.9697
lfoot -7.09082 -0.749672
ltoes 6.42255
109
root 32.5734 17.7297 5.62001 138.75 -88.467 -132.254
lowerback -2.28864 0.317601 2.7008
upperback -3.71592 0.358482 1.41875
thorax -2.52567 0.0961407 -0.0537485
lowerneck -15.6406 -5.08751 -8.43507
upperneck -13.3585 -5.65723 11.499
head -0.895412 -2.84457 4.69339
rclavicle 5.37961e-015 -4.77083e-015
rhumerus 35.3157 10.1901 -78.6973
rradius 74.933
rwrist -28.5945
rhand -10.6 -46.6615
rfingers 7.12502
rthumb 15.4058 -436.067
lclavicle 5.37961e-015 -4.77083e-015
lhumerus -3.50834 -12.8296 90.0688
lradius 47.763
lwrist -7.43914
lhand -13.725 25.4814
lfingers 7.12502
lthumb 12.3943 55.0939
rfemur -22.6227 -7.30775 19.4981
rtibia 58.432
rfoot -1.65473 -16.6624
rtoes 5.16772
lfemur -13.0821 -4.15592 -21.1745
ltibia 15.8182
lfoot -7.44493 -0.911682
ltoes 6.39095
110
root 32.4494 17.7324 5.61633 134.926 -88.694 -128.499
lowerback -2.26448 0.209069 2.52283
upperback -3.70385 0.216421 1.39109
thorax -2.52975 0.0301656 0.0171291
lowerneck -15.6293 -5.06989 -8.42045
upperneck -13.5716 -5.63493 11.5659
head -0.95983 -2.84276 4.7187
rclavicle -8.19987e-016 -9.54166e-015
rhumerus 35.8154 10.3746 -77.9185
rradius 75.2378
rwrist -27.7325
rhand -10.8023 -46.3949
rfingers 7.12502
rthumb 15.211 -435.816
lclavicle -8.19987e-016 -9.54166e-015
lhumerus -2.67431 -13.445 89.9565
lradius 48.3117
lwrist -6.91756
lhand -13.661 25.4907
lfingers 7.12502
lthumb 12.456 55.0995
rfemur -23.523 -7.48421 19.3744
rtibia 58.2769
rfoot -2.01761 -17.0676
rtoes 5.57229
lfemur -12.4605 -4.22625 -21.3576
ltibia 15.6702
lfoot -7.79981 -1.06401
ltoes 6.34517
111
root 32.3258 17.7341 5.61215 130.103 -88.9051 -123.739
lowerback -2.2394 0.10339 2.34251
upperback -3.69045 0.0780836 1.36495
thorax -2.53226 -0.0338705 0.0910103
lowerneck -15.6102 -5.04969 -8.40826
upperneck -13.7899 -5.60913 11.6322
head -1.02726 -2.83957 4.74478
rclavicle 3.72721e-017 8.34896e-015
rhumerus 36.2764 10.5623 -77.1261
rradius 75.5157
rwrist -26.8952
rhand -11.0072 -46.1427
rfingers 7.12502
rthumb 15.0136 -435.578
lclavicle 3.72721e-017 8.34896e-015
lhumerus -1.83168 -14.0449 89.8205
lradius 48.8467
lwrist -6.41307
lhand -13.5917 25.485
lfingers 7.12502
lthumb 12.5227 55.0897
rfemur -24.4031 -7.63869 19.2532
rtibia 57.9919
rfoot -2.39952 -17.4539
rtoes 5.95248
lfemur -11.8474 -4.29118 -21.5343
ltibia 15.5263
lfoot -8.15499 -1.2064
ltoes 6.28605
112
root 32.2022 17.735 5.60749 123.856 -89.0975 -117.551
lowerback -2.22133 0.00209415 2.16309
upperback -3.66466 -0.0547736 1.33824
thorax -2.51729 -0.0949158 0.163836
lowerneck -15.6174 -5.03008 -8.39403
upperneck -14.0059 -5.58382 11.6958
head -1.09041 -2.83649 4.76921
rclavicle -3.78933e-015 1.74931e-014
rhumerus 36.7198 10.7412 -76.3294
rradius 75.7733
rwrist -26.0785
rhand -11.2061 -45.9083
rfingers 7.12502
rthumb 14.8219 -435.358
lclavicle -3.78933e-015 1.74931e-014
lhumerus -0.956432 -14.6348 89.6521
lradius 49.3656
lwrist -5.92262
lhand -13.5186 25.4728
lfingers 7.12502
lthumb 12.5933 55.0732
rfemur -25.2607 -7.76882 19.1339
rtibia 57.577
rfoot -2.79578 -17.8154
rtoes 6.31979
lfemur -11.2431 -4.34975 -21.7045
ltibia 15.3874
lfoot -8.51113 -1.33871
ltoes 6.21695
